<svg xmlns="http://www.w3.org/2000/svg" width="117.635" height="109.059" viewBox="0 0 117.635 109.059">
  <g id="noun-cream-771308" transform="translate(-134.289 -3.754) rotate(-14)">
    <path id="Trazado_14" data-name="Trazado 14" d="M140,298.5c0,9.791,17.2,17.726,38.407,17.726s38.407-7.936,38.407-17.726V266c0,9.791-17.192,17.726-38.407,17.726S140,275.791,140,266Zm0,0" transform="translate(3.726 -165.685)" fill="none" stroke="#2671c1" stroke-linecap="round" stroke-linejoin="round" stroke-miterlimit="10" stroke-width="2.5"/>
    <path id="Trazado_15" data-name="Trazado 15" d="M207.951,212.335v8.37c0,6.525-13.224,11.819-29.544,11.819s-29.544-5.293-29.544-11.819v-8.367c-5.532,3.07-8.863,7.015-8.863,11.322,0,9.791,17.2,17.726,38.407,17.726s38.407-7.936,38.407-17.726C216.815,219.353,213.486,215.408,207.951,212.335Zm0,0" transform="translate(3.726 -123.345)" fill="none" stroke="#2671c1" stroke-linecap="round" stroke-linejoin="round" stroke-miterlimit="10" stroke-width="2.5"/>
    <path id="Trazado_16" data-name="Trazado 16" d="M201.081,129.727a50.1,50.1,0,0,1-4.157-3.733A20.966,20.966,0,0,0,193,131.576c-6.7,2.165-10.994,5.476-10.994,9.191,0,6.53,13.229,11.818,29.544,11.818s29.544-5.288,29.544-11.818-13.224-11.817-29.544-11.817A69.909,69.909,0,0,0,201.081,129.727Zm0,0" transform="translate(-29.412 -55.224)" fill="none" stroke="#2671c1" stroke-linecap="round" stroke-linejoin="round" stroke-miterlimit="10" stroke-width="2.5"/>
    <path id="Trazado_17" data-name="Trazado 17" d="M265.366,140.768a49.514,49.514,0,0,1-35.3-14.773A20.938,20.938,0,0,0,224,140.768a20.938,20.938,0,0,1,6.058-14.773A49.516,49.516,0,0,0,265.366,140.768Zm0,0" transform="translate(-62.55 -55.224)" fill="none" stroke="#2671c1" stroke-linecap="round" stroke-linejoin="round" stroke-miterlimit="10" stroke-width="2.5"/>
    <path id="Trazado_18" data-name="Trazado 18" d="M182,207.815c0,6.525,13.229,11.819,29.544,11.819s29.544-5.293,29.544-11.819V196c0,6.53-13.224,11.818-29.544,11.818S182,202.528,182,196Zm0,0" transform="translate(-29.41 -110.455)" fill="none" stroke="#2671c1" stroke-linecap="round" stroke-linejoin="round" stroke-miterlimit="10" stroke-width="2.5"/>
    <path id="Trazado_19" data-name="Trazado 19" d="M73.727,166.588c0-3.744,2.522-7.214,6.813-10.073C66.191,153.947,56,147.531,56,140v11.819c0,6.274,7.084,11.774,17.743,14.924,0-.052-.017-.1-.017-.153Zm0,0" transform="translate(69.999 -66.273)" fill="none" stroke="#2671c1" stroke-linecap="round" stroke-linejoin="round" stroke-miterlimit="10" stroke-width="2.5"/>
    <path id="Trazado_20" data-name="Trazado 20" d="M82.59,88.993v-3.45c0-3.715,4.291-7.024,10.993-9.19A21.006,21.006,0,0,1,97.51,70.77a50.388,50.388,0,0,0,4.157,3.733,69.938,69.938,0,0,1,10.467-.778,59.447,59.447,0,0,1,20.043,3.151,8.667,8.667,0,0,0,.641-3.151C132.817,63.935,115.623,56,94.41,56S56,63.936,56,73.725c0,7.531,10.19,13.948,24.538,16.518.648-.431,1.327-.852,2.052-1.25Zm0,0" transform="translate(70 0)" fill="none" stroke="#2671c1" stroke-linecap="round" stroke-linejoin="round" stroke-miterlimit="10" stroke-width="2.5"/>
  </g>
</svg>
