<svg xmlns="http://www.w3.org/2000/svg" width="485.802" height="212.938" viewBox="0 0 485.802 212.938">
  <g id="noun-wavy-1143446" transform="translate(522.2 -253.332) rotate(90)">
    <path id="Trazado_9" data-name="Trazado 9" d="M261.73,522.2a8.4,8.4,0,0,1-8.4-8.4c0-16.7,9.3-25.316,16.766-32.238,6.6-6.121,11.379-10.539,11.379-19.906S276.7,447.869,270.1,441.752c-7.465-6.914-16.762-15.527-16.762-32.234s9.3-25.3,16.766-32.219c6.609-6.113,11.379-10.535,11.379-19.891s-4.77-13.777-11.379-19.9c-7.465-6.914-16.766-15.523-16.766-32.227s9.3-25.3,16.766-32.219c6.609-6.113,11.379-10.535,11.379-19.887s-4.77-13.766-11.375-19.879c-7.469-6.914-16.766-15.52-16.766-32.211s9.3-25.3,16.766-32.211c6.609-6.109,11.379-10.527,11.379-19.879s-4.77-13.77-11.379-19.891c-7.469-6.91-16.766-15.52-16.766-32.211s9.3-25.3,16.766-32.219c6.609-6.109,11.379-10.527,11.379-19.879a8.4,8.4,0,0,1,16.8,0c0,16.695-9.3,25.3-16.766,32.211-6.609,6.113-11.379,10.535-11.379,19.887s4.77,13.77,11.379,19.887c7.465,6.91,16.766,15.52,16.766,32.219s-9.3,25.3-16.766,32.211c-6.609,6.109-11.379,10.527-11.379,19.879s4.77,13.77,11.379,19.879c7.465,6.914,16.766,15.52,16.766,32.211s-9.3,25.3-16.766,32.211c-6.609,6.113-11.379,10.535-11.379,19.891s4.777,13.781,11.379,19.9c7.465,6.914,16.762,15.523,16.762,32.223s-9.3,25.3-16.766,32.219c-6.609,6.113-11.379,10.535-11.379,19.891s4.777,13.789,11.379,19.906c7.465,6.914,16.762,15.527,16.762,32.234s-9.3,25.316-16.762,32.234c-6.609,6.121-11.379,10.543-11.379,19.914a8.4,8.4,0,0,1-8.4,8.394Z" fill="rgba(38,113,193,0.15)"/>
    <path id="Trazado_10" data-name="Trazado 10" d="M317.73,522.2a8.4,8.4,0,0,1-8.4-8.4c0-16.7,9.3-25.316,16.766-32.238,6.6-6.121,11.379-10.539,11.379-19.906S332.7,447.869,326.1,441.752c-7.465-6.914-16.762-15.527-16.762-32.234s9.3-25.3,16.766-32.219c6.609-6.113,11.379-10.535,11.379-19.891s-4.77-13.777-11.379-19.9c-7.465-6.914-16.766-15.523-16.766-32.227s9.3-25.3,16.766-32.219c6.609-6.113,11.379-10.535,11.379-19.887s-4.77-13.766-11.375-19.879c-7.469-6.914-16.766-15.52-16.766-32.211s9.3-25.3,16.766-32.211c6.609-6.109,11.379-10.527,11.379-19.879s-4.77-13.77-11.379-19.891c-7.469-6.91-16.766-15.52-16.766-32.211s9.3-25.3,16.766-32.219c6.609-6.109,11.379-10.527,11.379-19.879a8.4,8.4,0,0,1,16.8,0c0,16.695-9.3,25.3-16.766,32.211-6.609,6.113-11.379,10.535-11.379,19.887s4.77,13.77,11.379,19.887c7.465,6.91,16.766,15.52,16.766,32.219s-9.3,25.3-16.766,32.211c-6.609,6.109-11.379,10.527-11.379,19.879s4.77,13.77,11.379,19.879c7.465,6.914,16.766,15.52,16.766,32.211s-9.3,25.3-16.766,32.211c-6.609,6.113-11.379,10.535-11.379,19.891s4.777,13.781,11.379,19.9c7.465,6.914,16.762,15.523,16.762,32.223s-9.3,25.3-16.766,32.219c-6.609,6.113-11.379,10.535-11.379,19.891s4.777,13.789,11.379,19.906c7.465,6.914,16.762,15.527,16.762,32.234s-9.3,25.316-16.762,32.234c-6.609,6.121-11.379,10.543-11.379,19.914a8.4,8.4,0,0,1-8.4,8.394Z" fill="rgba(38,113,193,0.15)"/>
    <path id="Trazado_11" data-name="Trazado 11" d="M373.73,522.2a8.4,8.4,0,0,1-8.4-8.4c0-16.7,9.3-25.316,16.762-32.238,6.609-6.121,11.379-10.539,11.379-19.906s-4.777-13.789-11.379-19.906c-7.465-6.914-16.762-15.527-16.762-32.234s9.3-25.3,16.766-32.219c6.6-6.113,11.375-10.535,11.375-19.891s-4.777-13.777-11.375-19.9c-7.469-6.914-16.766-15.523-16.766-32.227s9.3-25.3,16.766-32.219c6.6-6.113,11.375-10.535,11.375-19.887S388.7,239.411,382.1,233.3c-7.469-6.914-16.766-15.52-16.766-32.211s9.3-25.3,16.766-32.211c6.6-6.109,11.375-10.527,11.375-19.879s-4.777-13.77-11.379-19.891c-7.465-6.91-16.762-15.52-16.762-32.211s9.3-25.3,16.766-32.219c6.6-6.109,11.375-10.527,11.375-19.879a8.4,8.4,0,0,1,16.8,0c0,16.695-9.3,25.3-16.766,32.211-6.6,6.113-11.375,10.535-11.375,19.887s4.777,13.77,11.375,19.887c7.469,6.91,16.766,15.52,16.766,32.219s-9.3,25.3-16.766,32.211c-6.6,6.109-11.375,10.527-11.375,19.879s4.777,13.77,11.375,19.879c7.469,6.914,16.766,15.52,16.766,32.211s-9.3,25.3-16.762,32.211c-6.609,6.113-11.379,10.535-11.379,19.891s4.777,13.781,11.379,19.9c7.465,6.914,16.762,15.523,16.762,32.223s-9.3,25.3-16.766,32.219c-6.6,6.113-11.375,10.535-11.375,19.891s4.777,13.789,11.379,19.906c7.465,6.914,16.762,15.527,16.762,32.234s-9.289,25.316-16.762,32.234c-6.609,6.121-11.379,10.543-11.379,19.914a8.4,8.4,0,0,1-8.4,8.394Z" fill="rgba(38,113,193,0.15)"/>
    <path id="Trazado_12" data-name="Trazado 12" d="M429.73,522.2a8.4,8.4,0,0,1-8.4-8.4c0-16.7,9.3-25.316,16.762-32.238,6.609-6.121,11.379-10.539,11.379-19.906s-4.777-13.789-11.379-19.906c-7.465-6.914-16.762-15.527-16.762-32.234s9.3-25.3,16.766-32.219c6.6-6.113,11.375-10.535,11.375-19.891s-4.777-13.777-11.375-19.9c-7.469-6.914-16.766-15.523-16.766-32.227s9.3-25.3,16.766-32.219c6.6-6.113,11.375-10.535,11.375-19.887S444.7,239.411,438.1,233.3c-7.469-6.914-16.766-15.52-16.766-32.211s9.3-25.3,16.766-32.211c6.6-6.109,11.375-10.527,11.375-19.879s-4.777-13.77-11.379-19.891c-7.465-6.91-16.762-15.52-16.762-32.211s9.3-25.3,16.766-32.219c6.6-6.109,11.375-10.527,11.375-19.879a8.4,8.4,0,0,1,16.8,0c0,16.695-9.3,25.3-16.766,32.211-6.6,6.113-11.375,10.535-11.375,19.887s4.777,13.77,11.375,19.887c7.469,6.91,16.766,15.52,16.766,32.219s-9.3,25.3-16.766,32.211c-6.6,6.109-11.375,10.527-11.375,19.879s4.777,13.77,11.375,19.879c7.469,6.914,16.766,15.52,16.766,32.211s-9.3,25.3-16.762,32.211c-6.609,6.113-11.379,10.535-11.379,19.891s4.777,13.781,11.379,19.9c7.465,6.914,16.762,15.523,16.762,32.223s-9.3,25.3-16.766,32.219c-6.6,6.113-11.375,10.535-11.375,19.891s4.777,13.789,11.379,19.906c7.465,6.914,16.762,15.527,16.762,32.234s-9.289,25.316-16.762,32.234c-6.609,6.121-11.379,10.543-11.379,19.914a8.4,8.4,0,0,1-8.4,8.394Z" fill="rgba(38,113,193,0.15)"/>
  </g>
</svg>
