<svg xmlns="http://www.w3.org/2000/svg" width="42.982" height="206.845" viewBox="0 0 42.982 206.845">
  <g id="noun-wavy-1143446" transform="translate(-253.332 -36.398)">
    <path id="Trazado_9" data-name="Trazado 9" d="M256.907,243.243a3.576,3.576,0,0,1-3.576-3.576c0-7.112,3.958-10.779,7.139-13.726,2.811-2.606,4.845-4.487,4.845-8.476s-2.034-5.871-4.845-8.476c-3.178-2.944-7.137-6.611-7.137-13.725s3.958-10.774,7.139-13.718c2.814-2.6,4.845-4.486,4.845-8.469s-2.031-5.866-4.845-8.472c-3.178-2.944-7.139-6.609-7.139-13.722s3.958-10.774,7.139-13.718c2.814-2.6,4.845-4.486,4.845-8.467s-2.031-5.861-4.843-8.464c-3.18-2.944-7.139-6.608-7.139-13.715s3.958-10.771,7.139-13.715c2.814-2.6,4.845-4.482,4.845-8.464s-2.031-5.863-4.845-8.469c-3.18-2.942-7.139-6.608-7.139-13.715s3.958-10.773,7.139-13.718c2.814-2.6,4.845-4.482,4.845-8.464a3.576,3.576,0,0,1,7.152,0c0,7.108-3.958,10.773-7.139,13.715-2.814,2.6-4.845,4.486-4.845,8.467s2.031,5.863,4.845,8.467c3.178,2.942,7.139,6.608,7.139,13.718s-3.958,10.773-7.139,13.715c-2.814,2.6-4.845,4.482-4.845,8.464s2.031,5.863,4.845,8.464c3.178,2.944,7.139,6.608,7.139,13.715s-3.958,10.773-7.139,13.715c-2.814,2.6-4.845,4.486-4.845,8.469s2.034,5.868,4.845,8.474c3.178,2.944,7.137,6.609,7.137,13.72s-3.958,10.774-7.139,13.718c-2.814,2.6-4.845,4.486-4.845,8.469s2.034,5.871,4.845,8.476c3.179,2.944,7.137,6.611,7.137,13.725s-3.958,10.779-7.137,13.725c-2.814,2.606-4.845,4.489-4.845,8.479A3.576,3.576,0,0,1,256.907,243.243Z" transform="translate(0)" fill="#2671c1"/>
    <path id="Trazado_10" data-name="Trazado 10" d="M312.907,243.243a3.576,3.576,0,0,1-3.576-3.576c0-7.112,3.958-10.779,7.139-13.726,2.811-2.606,4.845-4.487,4.845-8.476s-2.034-5.871-4.845-8.476c-3.178-2.944-7.137-6.611-7.137-13.725s3.959-10.774,7.139-13.718c2.814-2.6,4.845-4.486,4.845-8.469s-2.031-5.866-4.845-8.472c-3.178-2.944-7.139-6.609-7.139-13.722s3.959-10.774,7.139-13.718c2.814-2.6,4.845-4.486,4.845-8.467s-2.031-5.861-4.843-8.464c-3.18-2.944-7.139-6.608-7.139-13.715s3.958-10.771,7.139-13.715c2.814-2.6,4.845-4.482,4.845-8.464s-2.031-5.863-4.845-8.469c-3.18-2.942-7.139-6.608-7.139-13.715s3.958-10.773,7.139-13.718c2.814-2.6,4.845-4.482,4.845-8.464a3.576,3.576,0,0,1,7.152,0c0,7.108-3.958,10.773-7.139,13.715-2.814,2.6-4.845,4.486-4.845,8.467s2.031,5.863,4.845,8.467c3.178,2.942,7.139,6.608,7.139,13.718s-3.958,10.773-7.139,13.715c-2.814,2.6-4.845,4.482-4.845,8.464s2.031,5.863,4.845,8.464c3.178,2.944,7.139,6.608,7.139,13.715s-3.958,10.773-7.139,13.715c-2.814,2.6-4.845,4.486-4.845,8.469s2.034,5.868,4.845,8.474c3.178,2.944,7.137,6.609,7.137,13.72s-3.958,10.774-7.139,13.718c-2.814,2.6-4.845,4.486-4.845,8.469s2.034,5.871,4.845,8.476c3.178,2.944,7.137,6.611,7.137,13.725s-3.958,10.779-7.137,13.725c-2.814,2.606-4.845,4.489-4.845,8.479A3.576,3.576,0,0,1,312.907,243.243Z" transform="translate(-32.156)" fill="#2671c1"/>
  </g>
</svg>
